<?xml version="1.0" standalone="no"?>
<!DOCTYPE svg PUBLIC "-//W3C//DTD SVG 20010904//EN"
 "http://www.w3.org/TR/2001/REC-SVG-20010904/DTD/svg10.dtd">
<svg version="1.0" xmlns="http://www.w3.org/2000/svg"
 width="1024.000000pt" height="640.000000pt" viewBox="0 0 1024.000000 640.000000"
 preserveAspectRatio="xMidYMid meet">

<g transform="translate(0.000000,640.000000) scale(0.100000,-0.100000)"
fill="#000000" stroke="none">
<path d="M7685 4686 c-38 -18 -604 -587 -637 -641 -75 -122 -143 -246 -159
-290 l-17 -50 -74 -5 c-116 -9 -165 -50 -152 -129 5 -33 2 -42 -22 -64 -27
-25 -97 -47 -150 -47 -31 0 -92 -25 -117 -48 -34 -31 -57 -89 -57 -144 0 -79
30 -121 126 -178 94 -56 119 -85 105 -123 -16 -41 -54 -59 -124 -61 l-62 -2
-3 -49 c-2 -27 0 -60 3 -73 6 -24 8 -24 81 -20 96 6 175 45 218 106 26 37 31
54 34 115 5 110 -17 141 -164 232 -72 45 -67 61 36 104 147 61 216 154 189
253 -10 39 -9 44 11 60 12 10 41 23 63 28 176 45 305 87 387 126 l95 45 313
312 313 312 -3 77 c-3 69 -6 80 -33 108 -17 18 -42 38 -57 46 -34 18 -104 17
-143 0z m163 -60 c30 -29 36 -43 40 -89 4 -55 4 -56 -44 -107 l-49 -53 -6 62
c-4 39 -13 69 -25 82 -25 28 -75 49 -116 48 -35 0 -33 -2 40 -30 42 -15 79
-70 88 -127 l7 -44 -239 -240 c-242 -243 -291 -283 -399 -330 -93 -40 -107
-43 -105 -21 5 42 -1 54 -30 64 -16 6 -30 14 -30 17 0 4 28 52 61 108 56 93
87 127 353 392 160 160 302 296 316 301 45 19 100 6 138 -33z m-844 -827 c14
-17 26 -34 26 -38 0 -9 -99 -35 -106 -28 -8 8 33 97 45 97 5 0 21 -14 35 -31z"/>
<path d="M7535 4332 c-88 -82 -191 -183 -229 -225 -38 -42 -72 -77 -77 -77 -5
0 -9 13 -9 29 0 34 -10 44 -30 30 -13 -7 -12 -9 3 -9 14 0 17 -9 17 -45 l0
-45 40 0 c34 0 40 -3 40 -22 0 -25 7 -21 12 7 2 15 -4 21 -26 25 -28 5 -27 6
62 87 115 105 379 394 360 393 -2 0 -75 -67 -163 -148z"/>
<path d="M3215 3793 l-50 -4 0 -509 -1 -510 88 0 88 0 0 368 0 367 28 -34 c15
-19 140 -184 277 -365 l250 -331 79 -3 c44 -2 82 1 87 5 4 4 9 235 11 512 l3
504 -92 1 c-54 1 -94 -3 -97 -9 -2 -5 1 -164 7 -353 7 -235 7 -346 0 -353 -7
-7 -96 104 -283 353 -305 407 -266 371 -395 361z"/>
<path d="M5024 3684 c-4 -14 -4 -68 -2 -119 6 -101 1 -115 -41 -115 -44 0 -52
-12 -49 -71 l3 -54 45 -5 45 -5 0 -230 c0 -251 2 -263 61 -301 50 -33 267 -27
300 9 7 6 14 37 16 67 3 50 1 55 -17 52 -11 -1 -51 -5 -90 -8 -64 -6 -72 -4
-90 16 -18 19 -20 39 -23 168 -2 81 -1 166 3 190 l7 44 98 -7 98 -7 4 72 c1
39 1 74 -1 76 -2 2 -49 4 -104 4 l-99 0 3 113 4 112 -55 12 c-91 19 -109 17
-116 -13z"/>
<path d="M5749 3490 c-106 -19 -197 -92 -248 -199 -23 -50 -26 -68 -26 -166 0
-98 3 -116 27 -167 53 -114 156 -194 264 -205 72 -8 131 11 206 63 65 45 77
44 78 -6 1 -48 11 -53 89 -45 l72 7 -8 147 c-11 195 -9 318 7 424 7 48 9 91 6
94 -4 4 -32 12 -64 18 -63 13 -82 7 -82 -29 0 -11 -4 -28 -10 -36 -7 -12 -16
-7 -46 24 -64 66 -163 94 -265 76z m168 -159 c104 -48 149 -199 93 -311 -79
-155 -280 -153 -351 5 -24 53 -24 147 0 201 20 44 91 110 125 117 49 10 93 5
133 -12z"/>
<path d="M4440 3481 c-90 -29 -183 -113 -223 -199 -18 -39 -22 -65 -22 -157 0
-98 3 -116 27 -167 34 -73 104 -142 176 -176 48 -22 71 -27 142 -27 105 0 176
30 246 102 72 73 98 138 102 253 5 122 -17 186 -90 266 -75 81 -131 107 -243
111 -49 1 -101 -1 -115 -6z m202 -170 c128 -82 129 -287 0 -376 -36 -25 -53
-30 -102 -30 -49 0 -66 5 -101 30 -173 121 -101 405 101 405 45 0 65 -6 102
-29z"/>
</g>
</svg>
