<?xml version="1.0" standalone="no"?>
<!DOCTYPE svg PUBLIC "-//W3C//DTD SVG 20010904//EN"
 "http://www.w3.org/TR/2001/REC-SVG-20010904/DTD/svg10.dtd">
<svg version="1.0" xmlns="http://www.w3.org/2000/svg"
 width="96.000000pt" height="96.000000pt" viewBox="0 0 96.000000 96.000000"
 preserveAspectRatio="xMidYMid meet">

<g transform="translate(0.000000,96.000000) scale(0.100000,-0.100000)"
fill="#000000" stroke="none">
<path d="M425 810 l29 -30 147 0 c121 0 150 -3 163 -16 13 -13 16 -42 16 -163
l0 -147 30 -29 30 -29 0 178 c0 267 1 266 -266 266 l-178 0 29 -30z"/>
<path d="M570 690 c-12 -7 -12 -12 4 -29 10 -11 28 -21 40 -23 13 -2 22 -11
24 -24 2 -12 12 -30 23 -40 17 -16 22 -16 29 -4 42 66 -54 162 -120 120z"/>
<path d="M120 386 c0 -267 -1 -266 266 -266 l178 0 -29 30 -29 30 -140 0 -140
0 69 70 c68 69 69 69 50 90 l-19 21 -66 -66 c-36 -36 -69 -65 -73 -65 -4 0 -7
62 -7 138 l0 138 -30 29 -30 29 0 -178z"/>
<path d="M568 392 c-101 -101 -100 -103 60 -264 161 -160 163 -161 264 -60
101 101 100 103 -60 264 -161 160 -163 161 -264 60z m132 -17 l24 -26 -57 -57
-57 -57 -27 28 -27 27 54 55 c30 30 57 55 60 55 4 0 17 -11 30 -25z"/>
</g>
</svg>
