<?xml version="1.0" standalone="no"?>
<!DOCTYPE svg PUBLIC "-//W3C//DTD SVG 20010904//EN"
 "http://www.w3.org/TR/2001/REC-SVG-20010904/DTD/svg10.dtd">
<svg version="1.0" xmlns="http://www.w3.org/2000/svg"
 width="64.000000pt" height="64.000000pt" viewBox="0 0 64.000000 64.000000"
 preserveAspectRatio="xMidYMid meet">

<g transform="translate(0.000000,64.000000) scale(0.100000,-0.100000)"
fill="#000000" stroke="none">
<path d="M445 560 c-4 -6 5 -20 19 -31 33 -26 49 -42 75 -75 26 -33 41 -23 41
27 0 29 -7 47 -25 64 -17 18 -35 25 -64 25 -22 0 -43 -5 -46 -10z"/>
<path d="M172 518 c-66 -12 -79 -30 -92 -133 -10 -82 0 -218 19 -254 13 -24
30 -30 120 -42 87 -11 222 3 257 26 34 22 53 166 23 173 -12 2 -18 -11 -27
-64 -6 -37 -15 -71 -19 -75 -18 -18 -151 -29 -229 -19 -43 6 -82 14 -86 18 -4
4 -12 41 -18 82 -13 92 1 218 25 236 9 7 49 15 88 19 83 8 88 10 80 30 -6 17
-58 18 -141 3z"/>
<path d="M354 488 c-39 -47 -66 -113 -67 -167 l-2 -46 48 2 c56 2 141 40 177
78 l25 26 -21 37 c-22 39 -96 102 -119 102 -7 0 -26 -15 -41 -32z m53 -125
c13 -19 12 -23 -4 -32 -11 -5 -32 -11 -49 -13 -27 -3 -29 -1 -26 26 2 17 8 38
13 49 9 16 13 17 32 4 11 -7 27 -23 34 -34z"/>
</g>
</svg>
